Coordinates
version=1
nRows=13
nColumns=22
inDegrees=yes

Units are S.I. units (second, meters, Newtons, ...)
If the header above contains a line with 'inDegrees', this indicates whether rotational values are in degrees (yes) or radians (no).

endheader
time	pelvis_tilt	pelvis_list	pelvis_rotation	pelvis_tx	pelvis_ty	pelvis_tz	hip_flexion_r	hip_adduction_r	hip_rotation_r	knee_angle_r	ankle_angle_r	subtalar_angle_r	hip_flexion_l	hip_adduction_l	hip_rotation_l	knee_angle_l	ankle_angle_l	subtalar_angle_l	lumbar_extension	lumbar_bending	lumbar_rotation
      2.91000000	     -3.67728017	     -3.42055687	    -14.07076018	     -0.51920700	      0.85321182	      0.17921980	     28.90506417	      0.25725070	      0.90846871	    -28.31336734	      5.25911701	      3.95220280	     -5.52059640	     -7.03863973	      4.45827506	    -46.10943100	      2.00185720	      6.13717894	     -3.30960876	      2.95131010	      5.57523176
      2.92000000	     -3.67815658	     -3.98235034	    -13.30728812	     -0.50987718	      0.85467326	      0.18264507	     27.99698603	      0.62353462	      0.07563194	    -28.42791857	      6.11428193	      3.69885615	     -3.43271919	     -8.12153672	      3.71240199	    -49.72863483	      0.97193563	      5.38977118	     -3.43315983	      3.59985273	      5.76647284
      2.93000000	     -3.68631578	     -4.57210033	    -12.53124729	     -0.50088147	      0.85614421	      0.18588008	     27.03901928	      1.03377434	     -0.78027055	    -28.37033125	      6.86125654	      3.48177891	     -1.25586885	     -9.28628982	      2.98630101	    -53.21675763	      0.46992230	      4.47556064	     -3.56886273	      4.26752643	      6.02931389
      2.94000000	     -3.68353169	     -5.15594876	    -11.75510528	     -0.49217085	      0.85766996	      0.18890982	     26.03865399	      1.45702235	     -1.63306903	    -28.17115928	      7.49365784	      3.29323776	      0.95921028	    -10.46715833	      2.29147872	    -56.49222566	      0.46193757	      3.42647527	     -3.72333536	      4.91679478	      6.38118621
      2.95000000	     -3.65659590	     -5.68678434	    -10.99817370	     -0.48370736	      0.85927777	      0.19176254	     25.00678655	      1.85623746	     -2.44141078	    -27.86120339	      8.05780402	      3.10483145	      3.17278751	    -11.58595086	      1.61070215	    -59.49205042	      0.88560851	      2.19193466	     -3.89637381	      5.48811318	      6.83515656
      2.96000000	     -3.60986372	     -6.12700884	    -10.27466764	     -0.47545682	      0.86096254	      0.19440339	     23.97695696	      2.19127486	     -3.19148087	    -27.48671772	      8.52661059	      2.92455435	      5.37038292	    -12.57973231	      0.91287457	    -62.17716363	      1.61445785	      0.86007568	     -4.07470050	      5.95314077	      7.39514863
      2.97000000	     -3.54004407	     -6.44862543	     -9.59810012	     -0.46738643	      0.86273228	      0.19687366	     22.95597069	      2.43786767	     -3.85832869	    -27.07033097	      8.93340904	      2.74883990	      7.52013095	    -13.40221075	      0.16347334	    -64.51213672	      2.51387426	     -0.51712101	     -4.25523834	      6.27578822	      8.06225593
      2.98000000	     -3.45152846	     -6.64324273	     -8.97651383	     -0.45948097	      0.86457162	      0.19917531	     21.95144054	      2.58532235	     -4.42739441	    -26.62962750	      9.30588060	      2.58569829	      9.60307594	    -14.02958931	     -0.66071378	    -66.48181774	      3.45430737	     -1.83980141	     -4.43326838	      6.45223100	      8.82189553
      2.99000000	     -3.34479269	     -6.70939864	     -8.42654065	     -0.45170502	      0.86647083	      0.20132172	     20.96314256	      2.62785487	     -4.90366757	    -26.17307470	      9.63514205	      2.43831241	     11.57893052	    -14.44788117	     -1.59035423	    -68.06604175	      4.37257092	     -3.05296077	     -4.60743917	      6.48511985	      9.68304828
      3.00000000	     -3.21452321	     -6.66444679	     -7.95751446	     -0.44403686	      0.86841893	      0.20333512	     19.98553733	      2.57789460	     -5.29549374	    -25.71749970	      9.92766939	      2.31454757	     13.41264323	    -14.67436924	     -2.64475813	    -69.26107588	      5.19692140	     -4.09890940	     -4.78742654	      6.39314893	     10.63887957
      3.01000000	     -3.07024832	     -6.54445576	     -7.59126899	     -0.43646476	      0.87039533	      0.20527066	     19.01297356	      2.47870866	     -5.58879367	    -25.24654353	     10.16386937	      2.23423384	     15.08642316	    -14.76476888	     -3.84976407	    -70.06957176	      5.88273360	     -4.84239855	     -4.96995797	      6.21925790	     11.69887711
      3.02000000	     -2.86905536	     -6.33966720	     -7.24220240	     -0.42895787	      0.87241310	      0.20692633	     17.99765020	      2.27080663	     -5.87666820	    -24.77707278	     10.45987533	      2.15981463	     16.57841825	    -14.64859392	     -5.08501016	    -70.50952999	      6.44775893	     -5.51935686	     -5.19621949	      5.96038095	     12.75505489
      3.03000000	     -2.67375601	     -6.12896613	     -6.98481836	     -0.42153315	      0.87437974	      0.20851176	     16.99573550	      2.07466326	     -6.11058618	    -24.29345709	     10.67664512	      2.14031849	     17.92710922	    -14.49090026	     -6.42970876	    -70.60425402	      6.89519799	     -5.73810802	     -5.41052798	      5.70194912	     13.88462018
